<svg width="32" height="31" viewBox="0 0 32 31" fill="none" xmlns="http://www.w3.org/2000/svg">
<path d="M15.4894 7.72534C14.7173 7.72534 13.9625 7.95261 13.3205 8.3784C12.6785 8.80419 12.1781 9.40938 11.8826 10.1174C11.5871 10.8255 11.5098 11.6046 11.6605 12.3563C11.8111 13.108 12.1829 13.7984 12.7289 14.3404C13.2749 14.8823 13.9705 15.2514 14.7278 15.4009C15.4851 15.5504 16.2701 15.4737 16.9834 15.1804C17.6968 14.8871 18.3065 14.3904 18.7355 13.7532C19.1645 13.1159 19.3934 12.3667 19.3934 11.6003C19.3923 10.573 18.9806 9.58804 18.2487 8.86159C17.5168 8.13514 16.5245 7.72651 15.4894 7.72534ZM15.4894 13.5378C15.1034 13.5378 14.726 13.4242 14.405 13.2113C14.084 12.9984 13.8338 12.6958 13.686 12.3418C13.5383 11.9878 13.4996 11.5982 13.575 11.2224C13.6503 10.8465 13.8362 10.5013 14.1092 10.2303C14.3822 9.95936 14.73 9.77483 15.1086 9.70007C15.4873 9.62531 15.8798 9.66368 16.2364 9.81032C16.5931 9.95697 16.898 10.2053 17.1125 10.5239C17.327 10.8425 17.4414 11.2171 17.4414 11.6003C17.4408 12.114 17.235 12.6065 16.8691 12.9697C16.5031 13.3329 16.007 13.5372 15.4894 13.5378Z" fill="black"/>
<path d="M22.9917 4.14818C21.1369 2.30758 18.6609 1.21419 16.0416 1.07903C13.4224 0.943874 10.8455 1.77653 8.80837 3.4163C6.77124 5.05607 5.41827 7.38671 5.01058 9.9584C4.60288 12.5301 5.16937 15.1605 6.60071 17.342L13.976 28.5803C14.1401 28.8304 14.3646 29.0358 14.6289 29.1781C14.8933 29.3203 15.1892 29.3948 15.4899 29.3948C15.7906 29.3948 16.0865 29.3203 16.3508 29.1781C16.6152 29.0358 16.8396 28.8304 17.0037 28.5803L24.3793 17.342C25.7074 15.3184 26.2943 12.9031 26.0417 10.501C25.7891 8.09886 24.7123 5.85595 22.9917 4.14818ZM22.7438 16.2844L15.4899 27.3373L8.23599 16.2844C6.0156 12.9011 6.49182 8.37344 9.36833 5.51817C10.1722 4.72023 11.1266 4.08727 12.1769 3.65542C13.2273 3.22358 14.353 3.00131 15.4899 3.00131C16.6268 3.00131 17.7525 3.22358 18.8029 3.65542C19.8532 4.08727 20.8076 4.72023 21.6115 5.51817C24.488 8.37344 24.9642 12.9011 22.7438 16.2844Z" fill="black"/>
</svg>
