<svg width="25" height="25" viewBox="0 0 25 25" fill="none" xmlns="http://www.w3.org/2000/svg">
<path d="M24.9249 22.39L16.8093 14.5588C18.0687 12.9877 18.7499 11.0668 18.7499 9.04646C18.7499 6.62804 17.7718 4.36039 16.0031 2.65061C14.2343 0.940831 11.8781 0 9.37496 0C6.87185 0 4.5156 0.943847 2.74686 2.65061C0.974996 4.35738 0 6.62804 0 9.04646C0 11.4619 0.978121 13.7355 2.74686 15.4423C4.5156 17.1521 6.86872 18.0929 9.37496 18.0929C11.4687 18.0929 13.4562 17.4355 15.0843 16.2233L23.1999 24.0515C23.2237 24.0745 23.252 24.0927 23.2831 24.1052C23.3141 24.1176 23.3475 24.124 23.3811 24.124C23.4148 24.124 23.4481 24.1176 23.4792 24.1052C23.5103 24.0927 23.5386 24.0745 23.5624 24.0515L24.9249 22.7398C24.9487 22.7168 24.9676 22.6895 24.9805 22.6595C24.9934 22.6295 25 22.5974 25 22.5649C25 22.5324 24.9934 22.5002 24.9805 22.4702C24.9676 22.4402 24.9487 22.4129 24.9249 22.39ZM14.3249 13.823C12.9999 15.0985 11.2437 15.8011 9.37496 15.8011C7.50622 15.8011 5.74997 15.0985 4.42498 13.823C3.10311 12.5444 2.37499 10.8497 2.37499 9.04646C2.37499 7.2432 3.10311 5.54548 4.42498 4.26993C5.74997 2.99438 7.50622 2.29177 9.37496 2.29177C11.2437 2.29177 13.0031 2.99136 14.3249 4.26993C15.6468 5.54849 16.3749 7.2432 16.3749 9.04646C16.3749 10.8497 15.6468 12.5474 14.3249 13.823Z" fill="black"/>
</svg>
